<svg xmlns="http://www.w3.org/2000/svg" version="1.1" xmlns:xlink="http://www.w3.org/1999/xlink" viewBox="0 0 700 700" style="overflow: hidden; display: block;" width="700" height="700"><defs></defs><g id="two-0" transform="matrix(1 0 0 1 0 0)" opacity="1"><path transform="matrix(1 0 0 1 350 350)" id="two-262" d="M 272.190698 112.745079 C 238.073593 154.288032 149.485946 73.591103 109.327155 109.327155 C 78.224932 137.004051 129.69096 208.752192 97.305216 234.915573 C 72.157151 255.23187 32.326358 223.116914 0 223.545417 C -32.823435 223.980509 -65.71831 240.050678 -98.460728 237.705224 C -135.381369 235.060469 -183.449186 235.370405 -206.076486 206.076485 C -230.136132 174.92821 -190.786227 121.375432 -209.708225 86.86399 C -234.179223 42.231842 -345.613197 50.194873 -337.167306 0 C -325.606708 -68.705924 -185.945465 -9.505488 -133.399883 -55.256041 C -118.576081 -68.162877 -118.61264 -92.357717 -110.049772 -110.049772 C -99.043246 -132.790757 -86.196962 -155.481372 -73.433862 -177.285025 C -50.405348 -216.625448 -44.120666 -282.824399 -0.000001 -294.285122 C 36.18623 -303.684807 77.87117 -270.394339 99.315346 -239.768456 C 122.621589 -206.483229 93.677847 -150.56876 118.073649 -118.07365 C 135.254516 -95.188806 175.266617 -100.446536 196.685991 -81.470006 C 220.386524 -60.472479 235.43586 -29.327007 247.374794 -0.000001 C 261.739076 35.284676 296.368871 83.304342 272.190698 112.745079 Z " fill="hsl(311, 52%, 78%)" stroke="undefined" stroke-width="1" stroke-opacity="1" fill-opacity="1" visibility="visible" stroke-linecap="butt" stroke-linejoin="miter" stroke-miterlimit="4"></path></g></svg>