<svg xmlns="http://www.w3.org/2000/svg" version="1.1" xmlns:xlink="http://www.w3.org/1999/xlink" xmlns:svgjs="http://svgjs.dev/svgjs" viewBox="0 0 800 800"><g stroke-width="2" stroke="#d58a9f" fill="none"><path d="M562.7450299863929 398.6053770963465C569.4115382518072 495.5373547438917 562.3382445542431 555.9105663652472 527.4276556712159 609.2434138885071C492.5170667881889 662.576261411767 448.3378531418891 659.0290898016082 395.1742033478621 654.603045207994C342.010553553835 650.1770006143797 304.9843762609508 630.1162022043475 272.2421366598857 587.9983998391591C239.49989705882058 545.8805974739709 229.1898828658925 505.0507426479528 238.01145326274877 452.43759385509C246.83302365960503 399.82444506222714 260.9571406617789 399.71938410733355 314.5856745647955 335.4552856334168C368.2142084678121 271.19118715950003 443.72855028439494 130.8136521255126 495.42841599722783 143.9699211802897C547.1282817100605 157.12619023506682 556.0785217209784 301.67339944880143 562.7450299863929 398.6053770963465C569.4115382518072 495.5373547438917 562.3382445542431 555.9105663652472 527.4276556712159 609.2434138885071 "></path><path d="M555.347528623375 398.6688397918074C561.711013785816 491.19481845537314 554.9592334381412 548.8237931848489 521.6354895043426 599.7324203661424C488.31174557054396 650.6410475474358 446.14067799907605 647.2551110104662 395.3935577411411 643.0302502620164C344.6464374832061 638.8053895135664 309.3032682490894 619.6564455767173 278.0493122662545 579.453088773583C246.7953562834196 539.2497319704487 236.95397909926106 500.27577963652243 245.3745690235329 450.0541376069716C253.7951589478048 399.8324955774207 267.277270631698 399.7322101204768 318.4681439027593 338.389207031738C369.65901717382064 277.04620394299934 441.7408889078316 143.04946595601132 491.09076072462653 155.6077227810258C540.4406325414215 168.1659796060403 548.984043460934 306.1428611282415 555.347528623375 398.6688397918074C561.711013785816 491.19481845537314 554.9592334381412 548.8237931848489 521.6354895043426 599.7324203661424 "></path><path d="M547.950027260357 398.7322109345338C554.0104893198247 486.8521906141202 547.5802223220392 541.7369284517163 515.8433233374691 590.2213352910434C484.106424352899 638.7057421303705 443.94350285626285 635.4810406665898 395.61291213442007 631.4573637633041C347.2823214125773 627.4336868600186 313.622160237228 609.1965973963527 283.85648787262335 570.9076861552725C254.0908155080187 532.6187749141923 244.71807533262955 495.5007250723577 252.73768478431708 447.67058980611876C260.75729423600455 399.84045453987983 273.59740060161715 399.74494458088566 322.3506132407232 341.32303687732497C371.1038258798292 282.9011291737643 439.7532275312682 155.2851882337756 486.75310545202524 167.24543282902755C533.7529833727823 179.2056774242795 541.8895652008896 310.61223125494735 547.950027260357 398.7322109345338C554.0104893198247 486.8521906141202 547.5802223220392 541.7369284517163 515.8433233374691 590.2213352910434 "></path><path d="M540.5525258973394 398.7955820772602C546.3099648538334 482.5095627728674 540.2012112059372 534.6500637185836 510.0511571705956 580.7102502159444C479.90110313525406 626.7704367133051 441.7463277134498 623.7069703227135 395.83226652769906 619.8844772645921C349.9182053419484 616.0619842064707 317.9410522253666 598.7367492159883 289.6636634789922 562.362283536962C261.3862747326178 525.9878178579359 252.4821715659981 490.72567050819293 260.1008005451012 445.2870420052659C267.7194295242043 399.8484135023389 279.9175305715363 399.7576790412945 326.233082578687 344.2568667229118C372.54863458583776 288.75605440452915 437.76556615470474 167.52091051153997 482.41545017942394 178.8831428770293C527.0653342041433 190.2453752425186 534.7950869408451 315.08160138165306 540.5525258973394 398.7955820772602C546.3099648538334 482.5095627728674 540.2012112059372 534.6500637185836 510.0511571705956 580.7102502159444 "></path><path d="M533.1550245343215 398.85901425514294C538.6094403878423 478.16699596677074 532.8222000898353 527.5632600206071 504.25899100372226 571.1992261760015C475.6957819176091 614.835192331396 439.5491525706366 611.9329610139932 396.05162092097805 608.3116518010363C352.5540892713195 604.6903425880793 322.2599442135052 588.27696207078 295.47083908536104 553.8169419538078C268.6817339572168 519.3569218368356 260.2462677993666 485.95067697918444 267.46391630588533 442.9035552395694C274.68156481240413 399.8564334999543 286.23766054145545 399.7704745368595 330.1155519166509 347.1907576036549C373.9934432918463 294.61104067045034 435.7779047781414 179.75669382446057 478.07779490682276 190.52091396018733C520.3776850355041 201.28513409591403 527.7006086808005 319.55103254351513 533.1550245343215 398.85901425514294C538.6094403878423 478.16699596677074 532.8222000898353 527.5632600206071 504.25899100372226 571.1992261760015 "></path><path d="M525.7575231713035 398.9223548802912C530.9089159218511 473.8243376079397 525.4431889737334 520.4763647698963 498.4668248368488 561.6881105833244C471.49046069996416 602.8998563967525 437.3519774278234 600.1588601525389 396.27097531425704 596.7387347847462C355.1899732006907 593.3186094169533 326.5788362016438 577.8170833728374 301.2780146917298 545.2715088179191C275.9771931818159 512.7259342630009 268.01036403273514 481.17559189744156 274.8270320666695 440.51997692113844C281.6437001006039 399.8643619448353 292.5577905113746 399.78317847969026 333.9980212546147 350.12455693166373C375.4382519978548 300.4659353836371 433.790243401578 191.9923855846468 473.74013963422146 202.15859349061094C513.690035866865 212.32480139657508 520.6061304207561 324.0203721526427 525.7575231713035 398.9223548802912C530.9089159218511 473.8243376079397 525.4431889737334 520.4763647698963 498.4668248368488 561.6881105833244 "></path><path d="M518.3600218082858 398.9857260230176C523.2083914558598 469.4817097666869 518.0641778576314 513.3895000367636 492.6746586699753 552.1770255082254C467.2851394823192 590.964550979687 435.1548022850103 588.3847898086624 396.49032970753603 585.1658482860339C357.8258571300618 581.9469067634055 330.8977281897824 567.3572351924729 307.08519029809867 536.7261061996087C283.272652406415 506.0949772067445 275.77446026610363 476.4005373332768 282.19014782745364 438.1364291202857C288.60583538880365 399.87232090729447 298.87792048129376 399.79591294009913 337.88049059257855 353.0583867772506C376.88306070386335 306.320860614402 431.80258202501454 204.22810786241115 469.4024843616203 213.79630353861268C507.0023866982258 223.3644992148142 513.5116521607117 328.4897422793485 518.3600218082858 398.9857260230176C523.2083914558598 469.4817097666869 518.0641778576314 513.3895000367636 492.6746586699753 552.1770255082254 "></path><path d="M510.9625357040569 399.0491429421113C515.5078822486576 465.13912770180116 510.6851820003185 506.30268107999814 486.8825077618909 542.6659862094934C463.0798335234633 579.0292913389889 432.9576424009863 576.6107652411533 396.7096993596041 573.5930075636891C360.461756318222 570.5752498862249 335.2166354367101 556.8974327884755 312.8923811632566 528.1807493576653C290.56812688980307 499.46406592685514 283.53857175826124 471.62552854547926 289.5532788470269 435.75292709580003C295.5679859357925 399.8803256461208 305.1980657100019 399.8086931768752 341.7629751893314 355.9922623992046C378.327884668661 312.17583162153414 429.81493590724017 216.4638759165427 465.06484434780805 225.4340593629816C500.3147527883758 234.40424280942057 506.41718915945626 332.95915818242145 510.9625357040569 399.0491429421113C515.5078822486576 465.13912770180116 510.6851820003185 506.30268107999814 486.8825077618909 542.6659862094934 "></path><path d="M503.5650343410391 399.1124835672596C507.8073577826664 460.7964693429701 503.3061708842165 499.21578582928737 481.09034159501743 533.1548706168163C458.87451230581837 567.0939554043453 430.7604672581731 564.8366643796987 396.9290537528831 562.0200905473989C363.0976402475932 559.203516715099 339.5355274248487 546.4375540905329 318.6995567696254 519.6353162217767C297.86358611440215 492.8330783530205 291.30266799162973 466.8504434637364 296.916394607811 433.36934877736905C302.53012122399224 399.88825409100184 311.51819567992106 399.8213971197059 345.6454445272953 358.9260617272134C379.77269337466953 318.0307263347209 427.8272745306768 228.69956767672886 460.72718907520675 237.0717388934052C493.62710361973666 245.44391011008156 499.32271089941173 337.42849779154903 503.5650343410391 399.1124835672596C507.8073577826664 460.7964693429701 503.3061708842165 499.21578582928737 481.09034159501743 533.1548706168163 "></path><path d="M496.1675329780212 399.1759615215095C500.1068333166752 456.45394831324074 495.9271597681145 492.12902790767805 475.29817542814396 523.6438923532407C454.6691910881734 555.1587567988033 428.5632921153599 553.0627008473459 397.1484081461621 550.4473108602103C365.7335241769643 547.8319208730746 343.8544194129873 535.9778127216919 324.50673237599426 511.0900204149897C305.15904533900124 486.2022281082875 299.0667642249983 462.0754957110951 304.27951036859514 430.98590778803975C309.49225651219206 399.8963198649844 317.8383256498402 399.8342383916382 349.52791386525917 361.8599983843237C381.21750208067806 323.88575837700927 425.8396131541134 240.93539676601665 456.38953380260546 248.70955575293044C486.9394544510976 256.4837147398442 492.2282326393672 341.8979747297783 496.1675329780212 399.1759615215095C500.1068333166752 456.45394831324074 495.9271597681145 492.12902790767805 475.29817542814396 523.6438923532407 "></path><path d="M488.7700316150033 399.2393021466578C492.4063088506839 452.1112899544096 488.5481486520126 485.0421326569673 469.5060092612705 514.1327767605635C450.46386987052847 543.2234208641598 426.3661169725468 541.2885999858913 397.3677625394411 538.87439384392C368.3694081063354 536.4601877019486 348.1733114011259 525.5179340237491 330.31390798236305 502.54458727910105C312.45450456360027 479.57124053445284 306.83086045836683 457.3004106293522 311.6426261293793 428.6023294696088C316.4543918003918 399.90424830986535 324.15845561975937 399.84694233446885 353.410383203223 364.79379771233243C382.6623107866866 329.740653090196 423.85195177754997 253.17108852620288 452.0518785300042 260.34723528335405C480.25180528245846 267.52338204050517 485.1337543793228 346.3673143389059 488.7700316150033 399.2393021466578C492.4063088506839 452.1112899544096 488.5481486520126 485.0421326569673 469.5060092612705 514.1327767605635 "></path><path d="M481.3725302519855 399.3027038069623C484.7057843846926 447.7686926307349 481.16913753591064 477.95529844141265 463.713843094397 504.6217222030426C446.2585486528835 531.2881459646726 424.1689418297336 529.5145601595932 397.5871169327201 527.3015378627861C371.0052920357066 525.0885155659789 352.4922033892645 515.0581163609628 336.1210835887319 493.99921517836856C319.74996378819935 472.94031399577443 314.5949566917353 452.52538658276546 319.00574189016345 426.21881218633405C323.4165270885916 399.91223778990263 330.4785855896785 399.85970731245584 357.2928525411868 367.72765807549746C384.1071194926951 335.5956088385391 421.86429040098653 265.40684132154536 447.714223257403 271.9849758489339C473.5641561138193 278.56311037632247 478.03927611927827 350.8367149831898 481.3725302519855 399.3027038069623C484.7057843846926 447.7686926307349 481.16913753591064 477.95529844141265 463.713843094397 504.6217222030426 "></path><path d="M473.9750288889676 399.366135984845C477.0052599187014 443.42612582463823 473.79012641980864 470.86849474343626 457.9216769275236 495.11069816309987C442.05322743523857 519.3529015827634 421.9717666869205 517.740550850873 397.8064713259991 515.7287123992302C373.6411759650777 513.7168739475874 356.81109537740303 504.59832921575446 341.92825919510074 485.4538735952144C327.04542301279844 466.30941797467426 322.35905292510387 447.75039305375697 326.3688576509476 423.8353254206375C330.37866237679134 399.92025778751804 336.79871555959767 399.87250280802095 361.17532187915066 370.6615489562406C385.55192819870365 341.45059510446026 419.87662902442315 277.64262463446596 443.3765679848017 283.6227469320919C466.8765069451802 289.60286922971784 470.94479785923386 355.3061461450518 473.9750288889676 399.366135984845C477.0052599187014 443.42612582463823 473.79012641980864 470.86849474343626 457.9216769275236 495.11069816309987 "></path><path d="M466.57749700837167 399.42950712757147C469.30470493513207 439.08349798338537 466.4110847861286 463.78163001030356 452.12948024307207 485.59961308800075C437.8478757000155 507.417596165698 419.7745610265292 505.9664805069966 398.02579520169996 504.15582590051815C376.2770293768707 502.3451712940396 361.1299568479635 494.13848103539 347.73540428389146 476.9084709769039C334.34085171981934 459.6784609184178 330.12311864089423 442.9753384895922 333.73194289415363 421.4517776197847C337.340767147413 399.92821674997714 343.11881501193864 399.88523726842976 365.0577606995364 373.59537880182745C386.99670638713405 347.30552033522514 417.88893713028165 289.8783469122303 439.0388821946223 295.26045698009364C460.188827258963 300.642567047957 463.8502890816112 359.77551627175757 466.57749700837167 399.42950712757147C469.30470493513207 439.08349798338537 466.4110847861286 463.78163001030356 452.12948024307207 485.59961308800075 "></path><path d="M459.1800109041429 399.49287827029787C461.6041957279299 434.7408701421325 459.0320889288157 456.69476527717086 446.33732933498766 476.08852801290175C433.6425697411596 495.4822907486325 417.57740114250515 494.19241016312026 398.245164853768 492.582939401806C378.91292856503094 490.9734686404918 365.4488640948912 483.6786328550255 353.54259514904936 468.3630683585934C341.6363262032075 453.0475038621613 337.88723013305184 438.20028392542747 341.0950739137268 419.0682298189319C344.3029176944018 399.9361757124363 349.43896024064685 399.8979717288386 368.9402452962893 376.52920864741435C388.4415303519317 353.1604455659901 415.9012910125073 302.1140691899946 434.70124218081014 306.8981670280954C453.5011933491129 311.6822648661962 456.75582608035586 364.2448863984633 459.1800109041429 399.49287827029787C461.6041957279299 434.7408701421325 459.0320889288157 456.69476527717086 446.33732933498766 476.08852801290175 "></path><path d="M451.782509541125 399.55627993060244C453.90367126193865 430.3982728184577 451.6530778127137 449.60793106161634 440.5451631681142 466.5774734553808C429.43724852351465 483.5470158491453 415.380225999692 482.418370336822 398.464519247047 481.0100834206721C381.54881249440206 479.60179650452216 369.7677560830298 473.2188151922391 359.34977075541815 459.81769625786103C348.9317854278065 446.4165773234829 345.65132636642034 433.42525987884085 348.45818967451095 416.6847125356572C351.2650529826016 399.9441651924736 355.759090210566 399.9107367068256 372.8227146342531 379.4630690105794C389.88633905794023 359.01540131433313 413.91362963594383 314.3498219853371 430.36358690820884 318.5359075936753C446.8135441804738 322.72199320201344 449.66134782031133 368.7142870427472 451.782509541125 399.55627993060244C453.90367126193865 430.3982728184577 451.6530778127137 449.60793106161634 440.5451631681142 466.5774734553808 "></path><path d="M444.38499291931805 399.61966633211796C446.20313153715836 426.05566023599386 444.2740514378227 442.5210815872727 434.75298174245165 457.0664036390708C425.23191204708064 471.611725690869 413.1830355980898 470.6443152517347 398.68385838153694 469.43721218074904C384.1846811649841 468.23010910976336 374.0866328123793 462.75898227066364 365.15693110299793 451.2723088983396C356.22722939361654 439.7856355260155 353.4154073409998 428.65022057346516 355.82129017650607 414.30117999359345C358.2271730120123 399.95213941372174 362.0792049216961 399.9234864260235 376.7051687134279 382.3969141149553C391.3311325051597 364.8703418038871 411.9259530005914 326.5855595218905 426.0259163768185 330.1736329004661C440.12587975304564 333.7617062790417 442.5668543014778 373.183672428242 444.38499291931805 399.61966633211796C446.20313153715836 426.05566023599386 444.2740514378227 442.5210815872727 434.75298174245165 457.0664036390708 "></path><path d="M436.98750681508926 399.68303747484435C438.5026223299562 421.713032394741 436.8950555805098 435.43421685414 428.96083083436724 447.5553185639718C421.02660608822475 459.67642027380356 410.98587571406574 458.87024490785836 398.90322803360505 457.86432568203696C386.8205803531443 456.85840645621556 378.405540059307 452.2991340902991 370.96412196815584 442.7269062800291C363.5227038770047 433.154678469759 361.1795188331574 423.87516600930036 363.18442119607926 411.9176321927406C365.18932355900114 399.9600983761809 368.3993501504043 399.93622088643235 380.58765331018077 385.3307439605422C392.7759564699573 370.725267034652 409.9383068828171 338.82128179965486 421.6882763630063 341.8113429484678C433.43824584319555 344.8014040972808 435.4723913002224 377.6530425549478 436.98750681508926 399.68303747484435C438.5026223299562 421.713032394741 436.8950555805098 435.43421685414 428.96083083436724 447.5553185639718 "></path><path d="M429.5900054520714 399.746454393938C430.80209786396495 417.3704503298553 429.51604446440786 428.3473978973745 423.16866466749383 438.04427926523994C416.8212848705798 447.7411606331053 408.78870057125255 447.0962203403492 399.12258242688404 446.29148495969207C389.45646428251547 445.48674957903495 382.7244320474456 441.8393316863018 376.7712975745247 434.18154943808577C370.8181631016037 426.5237671898697 368.9436150665259 419.1001572215028 370.54753695686344 409.534130168255C372.1514588472009 399.9681031150072 374.71948012032345 399.9490011232084 384.47012264814464 388.26461958249627C394.2207651759658 376.5802380417841 407.95064550625364 351.0570498537864 417.35062109040507 353.44909877283675C426.75059667455645 355.84114769188716 428.37791304017793 382.12245845802073 429.5900054520714 399.746454393938C430.80209786396495 417.3704503298553 429.51604446440786 428.3473978973745 423.16866466749383 438.04427926523994 "></path><path d="M422.19250408905356 399.80982553666445C423.1015733979737 413.0278224886024 422.13703334830586 421.2605331642418 417.37649850062036 428.5331941901409C412.61596365293485 435.80585521603996 406.5915254284394 435.32214999647283 399.341936820163 434.71859846098C392.0923482118866 434.11504692548715 387.0433240355842 431.3794835059373 382.5784731808935 425.63614681977526C378.1136223262028 419.89281013361324 376.7077112998944 414.32510265733805 377.91065271764757 407.1505823674022C379.11359413540066 399.97606207746634 381.03961009024255 399.9617355836172 388.35259198610845 391.1984494280831C395.6655738819744 382.435163272549 405.96298412969026 363.29277213155075 413.0129658178038 365.0868088208385C420.06294750591735 366.8808455101263 421.28343478013346 386.5918285847265 422.19250408905356 399.80982553666445C423.1015733979737 413.0278224886024 422.13703334830586 421.2605331642418 417.37649850062036 428.5331941901409 "></path><path d="M414.7950027260357 399.87321193817996C415.4010489319825 408.6852099061386 414.7580222322039 414.1736836898982 411.5843323337469 419.0221243738309C408.4106424352899 423.8705650577636 404.3943502856263 423.54809491138553 399.561291213442 423.145727221057C394.7282321412577 422.7433595307284 391.3622160237228 420.9196505843619 388.3856487872623 417.0907594602538C385.4090815508019 413.26186833614577 384.47180753326296 409.5500633519623 385.2737684784317 404.76704982533846C386.0757294236005 399.98403629871456 387.3597400601617 399.97448530281514 392.2350613240723 394.13229453245907C397.11038258798294 388.290103762103 403.9753227531268 375.5285096681041 408.67531054520254 376.72453412762934C413.37529833727825 377.9205585871545 414.18895652008894 391.0612139702213 414.7950027260357 399.87321193817996C415.4010489319825 408.6852099061386 414.7580222322039 414.1736836898982 411.5843323337469 419.0221243738309 "></path><path d="M407.39750136301785 399.9366135984845C407.70052446599124 404.3426125824638 407.37901111610194 407.08684947434364 405.79216616687347 409.51106981631C404.20532121764495 411.93529015827636 402.19717514281314 411.7740550850873 399.780645606721 411.572871239923C397.3641160706289 411.37168739475874 395.6811080118614 410.45983292157547 394.19282439363116 408.54538735952144C392.7045407754009 406.6309417974674 392.23590376663145 404.7750393053757 392.6368842392159 402.38353254206373C393.03786471180024 399.9920257787518 393.67987003008085 399.9872502808021 396.1175306620362 397.06615489562404C398.55519129399147 394.145059510446 401.98766137656344 387.7642624634466 404.33765527260124 388.3622746932092C406.6876491686391 388.96028692297176 407.09447826004447 395.53061461450517 407.39750136301785 399.9366135984845C407.70052446599124 404.3426125824638 407.37901111610194 407.08684947434364 405.79216616687347 409.51106981631 "></path></g></svg>