<svg xmlns="http://www.w3.org/2000/svg" version="1.1" xmlns:xlink="http://www.w3.org/1999/xlink" xmlns:svgjs="http://svgjs.dev/svgjs" viewBox="0 0 800 800"><g stroke-width="2" stroke="#d58a9f" fill="none"><path d="M527.7088997680219 349.79707463818704C559.8506081284486 435.64071225957935 624.8493087815102 559.1211367039006 605.4533202488849 600.6464363770177C586.0573317162596 642.1717360501348 506.1884470383254 550.5272165811422 434.6081548114205 549.1185130691488C363.0278625845157 547.7098095571555 311.46976553562916 620.9192624429676 261.867917559741 593.8846595194495C212.2660695838528 566.8500565959315 176.87046744446064 472.3159637166 196.51928452715748 419.3524190362624C216.16810160985432 366.3888743559247 303.1293571417518 387.73369572923 356.1822395566852 339.6596450538286C409.2351219716186 291.58559437842723 415.43839924147596 186.4850112975936 451.1731201188377 188.59697579433492C486.9078409961994 190.70894029107632 495.5671914075954 263.95343701679474 527.7088997680219 349.79707463818704C559.8506081284486 435.64071225957935 624.8493087815102 559.1211367039006 605.4533202488849 600.6464363770177 "></path><path d="M521.9039796025631 352.07907711601445C552.584701219334 434.0207312091617 614.6289154790746 551.8884090878319 596.1145627888415 591.5261951394436C577.6002100986084 631.1639811910554 501.36172926967106 543.6851216979262 433.0350866894437 542.3404501637507C364.7084441092163 540.9957786295753 315.49389692618826 610.8775291114868 268.14667840374955 585.0717717754014C220.79945988131084 559.266014439316 187.0127487482547 469.02892578177216 205.76843778173804 418.47281495054085C224.5241268152214 367.91670411930954 307.53259800475996 388.29130633928276 358.173985764469 342.4024397854905C408.8153735241782 296.5135732316983 414.7366836454056 196.19028938181162 448.84709902834186 198.2062554923375C482.9575144112781 200.22222160286333 491.2232579857923 270.1374230228673 521.9039796025631 352.07907711601445C552.584701219334 434.0207312091617 614.6289154790746 551.8884090878319 596.1145627888415 591.5261951394436 "></path><path d="M516.0989984019482 354.3609727823185C545.3187332750633 432.4006433472206 604.4084611414829 544.6555746602398 586.7757442936418 582.4058470903464C569.1430274458007 620.1561195204529 496.53495046586045 536.8429200031867 431.4619575323105 535.5622804468292C366.3889645987607 534.2816408904716 319.51796728159115 600.8356889684826 274.42537821260186 576.2587772198299C229.33278914361262 551.6818654711772 197.1549690168925 465.7417810354211 215.01753000116236 417.593104053296C232.88009098543222 369.44442707117094 311.93577783261173 388.84881013781217 360.16567093709665 345.145127705629C408.39556404158145 301.4414452734459 414.0349070141791 205.89546065450622 446.5210169026898 207.8154283788166C479.00712679120056 209.7353961031269 486.8792635288331 276.32130221741636 516.0989984019482 354.3609727823185C545.3187332750633 432.4006433472206 604.4084611414829 544.6555746602398 586.7757442936418 582.4058470903464 "></path><path d="M510.2940477189113 356.6429447425678C538.0527958483706 430.7806317792248 594.1880373214693 537.4228165265931 577.4369563160203 573.2855753351942C560.6858753105712 609.1483341437954 491.70820217962796 530.0007946023926 429.8888588927556 528.784187023853C368.06951560588317 527.5675794453133 323.5420681545721 590.7939251194236 280.70410853903235 567.4458589582036C237.86614892349252 544.0977927969834 207.29721980310842 462.4547125830153 224.2666527381648 416.7134694499964C241.2360856732211 370.97222631697764 316.33898817804175 389.4063902302868 362.15738662730234 347.8878919197128C407.97578507656294 306.3693936091388 413.33316090053063 215.60070822114614 444.1949652946158 217.424677559241C475.056769688701 219.2486468973358 482.53529958945205 282.5052577059108 510.2940477189113 356.6429447425678C538.0527958483706 430.7806317792248 594.1880373214693 537.4228165265931 577.4369563160203 573.2855753351942 "></path><path d="M504.48909703587447 358.92488618523896C530.7868584216781 429.1605896936509 583.9676135014557 530.1900278753683 568.0981683383986 564.165273062464C552.2287231753417 598.1405182495599 486.8814538933955 523.1586386840204 428.31576025320055 522.0060630832986C369.7500666130057 520.8534874825768 327.5661690275531 580.7521307527867 286.9828388654628 558.6329101789993C246.39950870337248 536.5136896052118 217.43947058932434 459.16761361303134 233.51577547516723 415.8338043291187C249.59208036101006 372.49999504520616 320.7421985234717 389.96393980518326 364.1491023175081 350.6306256162185C407.55600611154443 311.29731142725365 412.63141478688226 225.30592527020792 441.8689136865419 227.03389622208726C471.1064125862015 228.76186717396655 478.19133565007087 288.6891826768271 504.48909703587447 358.92488618523896C530.7868584216781 429.1605896936509 583.9676135014557 530.1900278753683 568.0981683383986 564.165273062464 "></path><path d="M498.6841463528376 361.2068123691211C523.5209209949854 427.5405323492879 573.7471896814421 522.9572239653543 558.7593803607772 555.0449555309448C543.7715710401122 587.1326870965353 482.054705607163 516.3164675068591 426.7426616136456 515.2279238839551C371.4306176201282 514.1393802610512 331.5902699005341 570.7103211273607 293.2615691918932 549.8199461410057C254.93286848325238 528.9295711546508 227.58172137554027 455.8804993842583 242.76489821216967 414.95412394945197C257.948075048799 374.0277485146456 325.14540886890165 390.5214741212907 366.1408180077138 353.37334405393506C407.1362271465259 316.2252139865794 411.9296686732339 235.0111270604807 439.5428620784679 236.64309962614448C467.15605548370206 238.27507219180825 473.8473717106898 294.8730923889543 498.6841463528376 361.2068123691211C523.5209209949854 427.5405323492879 573.7471896814421 522.9572239653543 558.7593803607772 555.0449555309448 "></path><path d="M492.87919566980077 363.48878432937045C516.2549835682928 425.9205207812921 563.5267658614285 515.7244658317074 549.4205923831556 545.9246837757927C535.3144189048828 576.1249017198779 477.2279573209305 509.474342106065 425.1695629740907 508.449830460979C373.1111686272507 507.425318815893 335.61437077351513 560.6685572783017 299.5402995183237 541.0070278793795C263.4662282631323 521.3454984804573 237.7239721617562 452.5934309318525 252.01402094917205 414.0744893461524C266.30406973658796 375.5555477604523 329.5486192143316 391.07905421376535 368.1325336979195 356.1161082680188C406.7164481815074 321.15316232227235 411.2279225595855 244.71637462712062 437.21681047039397 246.25234880656888C463.2056983812025 247.7883229860172 469.5034077713086 301.0570478774487 492.87919566980077 363.48878432937045C516.2549835682928 425.9205207812921 563.5267658614285 515.7244658317074 549.4205923831556 545.9246837757927 "></path><path d="M487.0742449867639 365.7707562896197C508.98904614160017 424.30050921329627 553.306342041415 508.49170769806074 540.0818044055341 536.8044120206406C526.8572667696533 565.1171163432205 472.401209034698 502.63221670527093 423.59646433453565 501.6717370380028C374.79171963437324 500.71125737073453 339.6384716464961 550.6267934292428 305.81902984475414 532.1941096177532C271.9995880430122 513.7614258062637 247.86622294797212 449.30636247944665 261.2631436861745 413.19485474285284C274.66006442437686 377.08334700625903 333.95182955976156 391.63663430623996 370.12424938812524 358.8588724821026C406.29666921648885 326.08111065796527 410.52617644593704 254.42162219376053 434.8907588623201 255.86159798699327C459.2553412787031 257.3015737802261 465.15944383192755 307.24100336594313 487.0742449867639 365.7707562896197C508.98904614160017 424.30050921329627 553.306342041415 508.49170769806074 540.0818044055341 536.8044120206406 "></path><path d="M481.2693248213052 368.05269773229094C501.72313923248566 422.6804671277224 543.0859487389795 501.2589190468359 530.7430469454907 527.6841097479104C518.4001451520019 554.1093004489849 467.57449126604376 495.7900607868987 422.0233962125588 494.89361309744845C376.4723011590739 493.9971654079982 343.6626030370552 540.5849990626058 312.0977906887627 523.3811608385488C280.53297834047027 506.1773226144919 258.00850425176617 446.0192635094627 270.51229694075505 412.31518962197515C283.01608962974393 378.6111157344876 338.35507042276964 392.1941838811365 372.11599559590906 361.6016061786083C405.87692076904847 331.00902847608006 409.8244608498668 264.1268392428223 432.56473777182424 265.47081664983955C455.3050146937817 266.81479405685684 460.8155104101246 313.42492833685947 481.2693248213052 368.05269773229094C501.72313923248566 422.6804671277224 543.0859487389795 501.2589190468359 530.7430469454907 527.6841097479104 "></path><path d="M475.4643436206902 370.33462391617303C494.457171288215 421.06040978335943 532.8654944013878 494.026115136822 521.404228450291 518.5637922163911C509.9429624991942 543.1014692959603 462.74771246223315 488.94788960973744 420.4502670554257 488.11547389810505C378.15282164861827 487.28305818647254 347.68667339245803 530.5431894371796 318.37649049761507 514.5681968005554C289.06630760277204 498.5932041639311 268.15072452040397 442.7321492806898 279.76138916017936 411.4355092423084C291.37205379995476 380.13886920392713 342.7582502506215 392.7517181972439 374.1076807685366 364.34432461632485C405.4571112864518 335.93693103540585 409.12268421864025 273.83204103309504 430.2386556461722 275.08002005389676C451.35462707370414 276.32799907469854 456.4715159531653 319.6088380489867 475.4643436206902 370.33462391617303C494.457171288215 421.06040978335943 532.8654944013878 494.026115136822 521.404228450291 518.5637922163911 "></path><path d="M469.65939293765325 372.61661113521143C487.1912338615223 419.4404134741527 522.6450705813742 486.79337226196424 512.0654404726695 509.4435357200281C501.4858103639648 532.093699178092 457.92096417600067 482.1057794677324 418.8771684158707 481.3373957339178C379.8333726557408 480.5690120001034 351.71077426543906 520.5014408469099 324.6552208240455 505.7552937977182C297.59966738265194 491.0091467485265 278.2929753066199 439.445096087073 289.0105118971818 410.5558898977979C299.7280484877437 381.6666837085229 347.1614605960514 393.3093135485076 376.0993964587424 367.08710408919774C405.03733232143327 340.86489462988783 408.4209381049918 283.53730385852407 427.91260403809827 284.6892844931103C447.40426997120466 285.8412651276965 452.1275520137842 325.79280879627015 469.65939293765325 372.61661113521143C487.1912338615223 419.4404134741527 522.6450705813742 486.79337226196424 512.0654404726695 509.4435357200281 "></path><path d="M463.8544727721945 374.8985373190935C479.9253269524079 417.8203561297897 512.4246772789387 479.5605683519502 502.72668301262604 500.3232181885089C493.0286887463134 521.0858680250674 453.0942464073463 475.263608290571 417.30410029389384 474.5592565345744C381.51395418044143 473.85490477857775 355.73490565599815 510.45963122148373 330.93398166805406 496.94232975972477C306.13305768010997 483.4250282979658 288.43525661041394 436.1579818583 298.25966515176236 409.6762095181312C308.0840736931108 383.19443717796236 351.5647014590595 393.866847864615 378.0911426665262 369.8298225269143C404.6175838739929 345.7927971892136 407.7192225089216 293.2425056487968 425.58658294760244 294.2984878971675C443.4539433862833 295.3544701455382 447.7836185919813 331.97671850839737 463.8544727721945 374.8985373190935C479.9253269524079 417.8203561297897 512.4246772789387 479.5605683519502 502.72668301262604 500.3232181885089 "></path><path d="M458.04949157157955 377.1804940205538C472.65935900813713 416.2003293030048 502.20422294134687 472.32779495951445 493.38786451742635 491.20293117456777C484.57150609350583 510.07806738962097 448.2674676035357 468.4214676309879 415.73097113676073 467.7811478528091C383.1944746699858 467.14082807463035 359.75897601140105 500.41785211363583 337.2126814769064 488.1293962393095C314.6663869424118 475.8409403649831 298.57747687905174 432.8708981471051 307.5087573711866 408.7965596560425C316.44003786332155 384.72222116498 355.96788128691134 394.4244126983006 380.08282783915377 372.572571482209C404.1977743913962 350.72073026611747 407.017445877695 302.94773795664764 423.26050082195036 303.9077218188028C439.50355576620575 304.867705680958 443.43962413502203 338.1606587381027 458.04949157157955 377.1804940205538C472.65935900813713 416.2003293030048 502.20422294134687 472.32779495951445 493.38786451742635 491.20293117456777 "></path><path d="M452.24455614733176 379.46243546322495C465.39343684023356 414.5802872174309 491.98381438012234 465.0950063082896 484.04909179859385 482.0826289018375C476.11436921706536 499.0702514953855 443.44073457609227 461.57931171261566 414.1578877559948 461.0030239122548C384.87504093589735 460.4267361118939 363.7830921431711 490.37605774699887 343.4914270621259 479.3164474601051C323.19976198108077 468.25683717321135 308.71974292405673 429.58379917712114 316.7578953669781 407.91689453516483C324.79604780989956 386.2499898932085 360.37110689113035 394.9819622731971 382.0745587881486 375.3153051787147C403.77801068516675 355.64864808423226 406.31571502283566 312.65295500570943 420.93446447266547 313.5169404816491C435.5532139224953 314.3809259575888 439.09567545442997 344.34458370901905 452.24455614733176 379.46243546322495C465.39343684023356 414.5802872174309 491.98381438012234 465.0950063082896 484.04909179859385 482.0826289018375 "></path><path d="M446.4396054642949 381.7443921646852C458.12749941354093 412.96026039064606 481.7633905601088 457.8622329158537 474.71030382097234 472.96234188789634C467.65721708183594 488.06245085993896 438.6139862898598 454.7371710530325 412.5847891164399 454.2249152304895C386.55559194301986 453.7126594079465 367.8071930161521 480.33427863915085 349.77015738855636 470.50351393968975C331.73312176096067 460.67274924022865 318.86199371027266 426.29671546592624 326.00701810398056 407.0372446730762C333.1520424976885 387.77777388022616 364.77431723656036 395.5395271068827 384.0662744783543 378.0580541340094C403.35823172014824 360.5765811611362 405.6139689091873 322.3581873135603 418.6084128645915 323.12617440328444C431.6028568199958 323.8941614930086 434.75171151504884 350.5285239387244 446.4396054642949 381.7443921646852C458.12749941354093 412.96026039064606 481.7633905601088 457.8622329158537 474.71030382097234 472.96234188789634 "></path><path d="M440.63465478125806 384.02634886614544C450.8615619868483 411.3402335638612 471.5429667400952 450.62945952341795 465.37151584335083 463.8420548739552C459.2000649466064 477.05465022449243 433.78723800362735 447.89503039344936 411.01169047688484 447.4468065487242C388.2361429501424 446.9985827039991 371.83129388913306 470.2924995313029 356.04888771498685 461.6905804192744C340.2664815408406 453.08866130724596 329.0042444964885 423.00963175473134 335.256140840983 406.1575948109876C341.50803718547746 389.3055578672438 369.17752758199026 396.09709194056825 386.05799016855997 380.80080308930417C402.9384527551297 365.50451423804003 404.91222279553887 332.0634196214112 416.28236125651756 332.7354083249198C427.6524997174963 333.4073970284284 430.40774757566777 356.71246416842973 440.63465478125806 384.02634886614544C450.8615619868483 411.3402335638612 471.5429667400952 450.62945952341795 465.37151584335083 463.8420548739552 "></path><path d="M434.82970409822116 386.30829030881665C443.59562456015567 409.7201914782873 461.3225429200816 443.39667087219306 456.03272786572927 454.721752601225C450.7429128113769 466.04683433025696 428.96048971739486 441.05287447507715 409.4385918373299 440.66868260816983C389.9166939572649 440.28449074126263 375.8553947621141 460.2507051646659 362.3276180414173 452.87763164007004C348.79984132072053 445.5045581154742 339.14649528270445 419.72253278474744 344.50526357798543 405.2779296901099C349.86403187326636 390.8333265954724 373.5807379274203 396.65464151546473 388.0497058587657 383.5435367858098C402.51867379011117 370.4324320561549 404.21047668189044 341.768636670473 413.95630964844366 342.34462698776605C423.7021426149969 342.9206173050592 426.06378363628664 362.896389139346 434.82970409822116 386.30829030881665C443.59562456015567 409.7201914782873 461.3225429200816 443.39667087219306 456.03272786572927 454.721752601225 "></path><path d="M429.0247534151843 388.59024701027687C436.3296871334631 408.1001646515024 451.10211910006797 436.1638974797572 446.6939398881077 445.6014655872839C442.28576067614745 455.0390336948105 424.1337414311624 434.21073381549394 407.8654931977749 433.89057392640456C391.5972449643874 433.5704140373152 379.87949563509505 450.2089260568179 368.6063483678477 444.06469811965474C357.33320110060043 437.92047018249156 349.2887460689204 416.43544907355255 353.75438631498787 404.39827982802126C358.2200265610553 392.36111058249 377.9839482728502 397.2122063491503 390.0414215489714 386.2862857411045C402.09889482509266 375.36036513305874 403.5087305682421 351.4738689783238 411.6302580403697 351.9538609094014C419.7517855124974 352.433852840479 421.7198196969056 369.08032936905136 429.0247534151843 388.59024701027687C436.3296871334631 408.1001646515024 451.10211910006797 436.1638974797572 446.6939398881077 445.6014655872839 "></path><path d="M423.21980273214746 390.87220371173714C429.06374970677047 406.48013782471753 440.8816952800544 428.9311240873214 437.35515191048614 436.48117857334273C433.82860854091797 444.031233059364 419.3069931449299 427.3685931559108 406.29239455821994 427.1124652446393C393.27779597150993 426.8563373333678 383.903596508076 440.16714694896996 374.8850786942782 435.25176459923944C365.86656088048034 430.33638224950886 359.4309968551363 413.14836536235765 363.0035090519903 403.51862996593263C366.57602124884426 393.8888945695076 382.3871586182802 397.7697711828359 392.03313723917717 389.02903469639926C401.6791158600741 380.2882982099626 402.80698445459365 361.17910128617467 409.30420643229576 361.5630948310368C415.8014284099979 361.94708837589883 417.37585575752445 375.2642695987567 423.21980273214746 390.87220371173714C429.06374970677047 406.48013782471753 440.8816952800544 428.9311240873214 437.35515191048614 436.48117857334273 "></path><path d="M417.4148520491106 393.1541451544083C421.79781228007784 404.8600957391436 430.6612714600408 421.6983354360965 428.01636393286464 427.3608763006125C425.3714564056885 433.0234171651285 414.48024485869746 420.5264372375386 404.71929591866495 420.33434130408494C394.95834697863245 420.1422453706313 387.92769738105704 430.12535258233294 381.16380902070864 426.438815820035C374.39992066036024 422.7522790577371 369.5732476413522 409.8612663923737 372.2526317889927 402.63896484505494C374.9320159366332 395.4166632977362 386.79036896371014 398.32732075773237 394.02485292938286 391.7717683929049C401.2593368950556 385.21621602807744 402.1052383409452 370.88431833523646 406.97815482422186 371.17231349388305C411.85107130749844 371.4603086525296 413.0318918181433 381.448194569673 417.4148520491106 393.1541451544083C421.79781228007784 404.8600957391436 430.6612714600408 421.6983354360965 428.01636393286464 427.3608763006125 "></path><path d="M411.6099013660737 395.43610185586857C414.53187485338526 403.24006891235877 420.4408476400272 414.4655620436607 418.67757595524307 418.24058928667137C416.91430427045896 422.015616529682 409.653496572465 413.68429657795537 403.14619727910997 413.5562326223196C396.63889798575497 413.42816866668386 391.951798254038 420.083573474485 387.4425393471391 417.6258822996197C382.9332804402402 415.16819112475446 379.71549842756815 406.57418268117885 381.5017545259951 401.7593149829663C383.2880106244221 396.94444728475383 391.1935793091401 398.8848855914179 396.01656861958855 394.5145173481996C400.8395579300371 390.1441491049813 401.4034922272968 380.58955064308736 404.6521032161479 380.7815474155184C407.90071420499896 380.9735441879494 408.6879278787622 387.6321347993784 411.6099013660737 395.43610185586857C414.53187485338526 403.24006891235877 420.4408476400272 414.4655620436607 418.67757595524307 418.24058928667137 "></path><path d="M405.80495068303685 397.7180432985397C407.26593742669263 401.62002682678485 410.2204238200136 407.23277339243583 409.33878797762156 409.12028701394115C408.4571521352295 411.0078006354465 404.8267482862325 406.84214065958315 401.573098639555 406.7781086817653C398.3194489928775 406.7140767039474 395.97589912701903 410.04177910784796 393.72126967356957 408.8129335204153C391.4666402201201 407.5840879329827 389.8577492137841 403.2870837111949 390.75087726299756 400.8796498620886C391.64400531221105 398.47221601298236 395.59678965457005 399.44243516631445 398.0082843097943 397.2572510447053C400.4197789650185 395.07206692309614 400.7017461136484 390.29476769214915 402.32605160807395 390.39076607836466C403.9503571024995 390.4867644645802 404.3439639393811 393.81605977029466 405.80495068303685 397.7180432985397C407.26593742669263 401.62002682678485 410.2204238200136 407.23277339243583 409.33878797762156 409.12028701394115 "></path></g></svg>