<svg width="174" height="93" viewBox="0 0 174 93" fill="none" xmlns="http://www.w3.org/2000/svg">
<path d="M91.9709 70.789C69.5004 75.536 48.5854 77.0316 32.9421 75.6232C25.1173 74.9187 18.6408 73.4901 13.9545 71.3981C9.25558 69.3005 6.45811 66.5854 5.77701 63.3613C5.0959 60.1372 6.55618 56.5226 10.0052 52.7037C13.445 48.895 18.7902 44.969 25.6615 41.1599C39.3985 33.5447 59.1314 26.4532 81.6019 21.7062C104.072 16.9592 124.987 15.4636 140.631 16.872C148.455 17.5765 154.932 19.0051 159.618 21.0971C164.317 23.1947 167.115 25.9098 167.796 29.1339C168.477 32.358 167.017 35.9726 163.568 39.7915C160.128 43.6002 154.783 47.5262 147.911 51.3353C134.174 58.9505 114.441 66.042 91.9709 70.789Z" stroke="#4D869C" stroke-opacity="0.5"/>
<path d="M91.9709 74.789C69.5004 79.536 48.5854 81.0316 32.9421 79.6232C25.1173 78.9187 18.6408 77.4901 13.9545 75.3981C9.25558 73.3005 6.45811 70.5854 5.77701 67.3613C5.0959 64.1372 6.55618 60.5226 10.0052 56.7037C13.445 52.895 18.7902 48.969 25.6615 45.1599C39.3985 37.5447 59.1314 30.4532 81.6019 25.7062C104.072 20.9592 124.987 19.4636 140.631 20.872C148.455 21.5765 154.932 23.0051 159.618 25.0971C164.317 27.1947 167.115 29.9098 167.796 33.1339C168.477 36.358 167.017 39.9726 163.568 43.7915C160.128 47.6002 154.783 51.5262 147.911 55.3353C134.174 62.9505 114.441 70.042 91.9709 74.789Z" stroke="#4D869C" stroke-opacity="0.5"/>
<path d="M42.3379 44.3164C39.9355 44.3164 37.8086 43.6836 35.957 42.418L35.377 44H32.1074V37.0566H36.0273C36.1797 37.9473 36.5957 38.7441 37.2754 39.4473C37.9551 40.1504 38.7402 40.502 39.6309 40.502C39.9707 40.502 40.2637 40.4082 40.5098 40.2207C40.7676 40.0332 40.8965 39.7227 40.8965 39.2891C40.8965 38.8555 40.6504 38.4629 40.1582 38.1113C39.6543 37.748 38.9043 37.332 37.9082 36.8633C36.7012 36.2656 35.7168 35.7207 34.9551 35.2285C34.1816 34.7363 33.5137 34.0918 32.9512 33.2949C32.3887 32.4863 32.1074 31.5195 32.1074 30.3945C32.1074 29.2344 32.4883 28.2266 33.25 27.3711C34.0117 26.5273 35.0137 25.8887 36.2559 25.4551C37.498 25.0215 38.8516 24.8047 40.3164 24.8047C42.2266 24.8047 44.002 25.3086 45.6426 26.3164L46.082 25.1738H49V30.7812H45.6074C45.3145 30.0195 44.8926 29.4219 44.3418 28.9883C43.791 28.5547 43.1465 28.3379 42.4082 28.3379C41.541 28.3379 41.1074 28.6133 41.1074 29.1641C41.1191 29.5391 41.3477 29.8613 41.793 30.1309C42.2383 30.3887 42.959 30.7402 43.9551 31.1855C44.5762 31.4434 45.1445 31.7012 45.6602 31.959C46.1758 32.2168 46.6387 32.4629 47.0488 32.6973C47.8691 33.1777 48.584 33.8574 49.1934 34.7363C49.8027 35.6035 50.1074 36.6875 50.1074 37.9883C50.1074 39.3711 49.75 40.5312 49.0352 41.4688C48.3203 42.418 47.3711 43.1328 46.1875 43.6133C45.0039 44.082 43.7207 44.3164 42.3379 44.3164ZM59.6875 44.3164C58.4922 44.3164 57.4082 44.082 56.4355 43.6133C55.4512 43.1562 54.666 42.4941 54.0801 41.627C53.4941 40.7598 53.2012 39.752 53.2012 38.6035C53.2012 37.3613 53.5469 36.3066 54.2383 35.4395C54.9297 34.5957 55.832 33.9629 56.9453 33.541C58.0703 33.1191 59.2832 32.9082 60.584 32.9082C62.1191 32.9082 63.5957 33.1367 65.0137 33.5938V32.8027C65.0137 31.8652 64.6152 31.1504 63.8184 30.6582C63.0332 30.166 61.9668 29.9199 60.6191 29.9199C60.0449 29.9199 59.4004 29.9902 58.6855 30.1309C57.9707 30.2715 57.2734 30.4648 56.5938 30.7109C55.9141 30.957 55.3223 31.2324 54.8184 31.5371L54.3086 31.3262V26.2109C55.7266 25.707 57.1738 25.3496 58.6504 25.1387C60.127 24.916 61.5039 24.8047 62.7812 24.8047C69.9062 24.8047 73.4688 26.8086 73.4688 30.8164V38.709H75.1211V44H66.1211L65.3301 41.1172C64.8262 42.1016 64.041 42.8809 62.9746 43.4551C61.9082 44.0293 60.8125 44.3164 59.6875 44.3164ZM62.9922 39.8164C63.3789 39.8164 63.7715 39.752 64.1699 39.623C64.5801 39.4941 64.8613 39.3594 65.0137 39.2188V36.2656C64.8379 36.2422 64.5566 36.1719 64.1699 36.0547C63.7715 35.9492 63.4258 35.8965 63.1328 35.8965C62.5117 35.8965 62.0137 36.0898 61.6387 36.4766C61.2754 36.8633 61.0938 37.3789 61.0938 38.0234C61.0938 38.5039 61.2637 38.9258 61.6035 39.2891C61.9551 39.6406 62.418 39.8164 62.9922 39.8164ZM92.418 44H77.8105V38.709H80.623V30.3242H77.8105V25.1738H80.623V23.4863C80.623 18.752 82.709 16.3848 86.8809 16.3848C87.7949 16.3848 88.7793 16.4727 89.834 16.6484C90.8887 16.8125 91.75 17 92.418 17.2109V22.3965C91.5391 22.2559 90.9297 22.1855 90.5898 22.1855C89.5586 22.1855 89.043 22.9648 89.043 24.5234V25.1738H92.418V30.3242H89.043V38.709H92.418V44ZM105.83 44.3164C103.65 44.3164 101.758 43.9121 100.152 43.1035C98.5352 42.3066 97.293 41.1641 96.4258 39.6758C95.5703 38.1875 95.1426 36.4473 95.1426 34.4551C95.1426 32.4863 95.5645 30.7754 96.4082 29.3223C97.2402 27.8809 98.418 26.7676 99.9414 25.9824C101.465 25.1973 103.252 24.8047 105.303 24.8047C107.189 24.8047 108.854 25.1738 110.295 25.9121C111.736 26.6621 112.85 27.7227 113.635 29.0938C114.432 30.4648 114.83 32.0645 114.83 33.8926C114.83 34.5254 114.736 35.123 114.549 35.6855H103.598C103.598 36.7871 104.014 37.6719 104.846 38.3398C105.678 38.9961 106.68 39.3242 107.852 39.3242C108.742 39.3242 109.721 39.1719 110.787 38.8672C111.854 38.5508 112.926 38.0645 114.004 37.4082L114.303 37.5137V42.2422C113.096 42.9336 111.854 43.4551 110.576 43.8066C109.311 44.1465 107.729 44.3164 105.83 44.3164ZM103.598 32.082V32.5918H108.098V32.2227C108.098 31.3906 107.904 30.6758 107.518 30.0781C107.143 29.4688 106.58 29.1641 105.83 29.1641C105.209 29.1641 104.682 29.4746 104.248 30.0957C103.814 30.7051 103.598 31.3672 103.598 32.082Z" fill="#24576B"/>
<path d="M66.5 69.2031H54.9844V64.4688H57V51.0938H54.9844V46.9062L64.4844 45.9375V48.5938C65.0156 47.8542 65.7031 47.2292 66.5469 46.7188C67.3906 46.1979 68.3802 45.9375 69.5156 45.9375C71.0052 45.9375 72.276 46.3229 73.3281 47.0938C74.3802 47.8646 75.1667 48.901 75.6875 50.2031C76.2188 51.5052 76.4844 52.9531 76.4844 54.5469C76.4844 56.1302 76.224 57.5938 75.7031 58.9375C75.1823 60.2604 74.3906 61.3177 73.3281 62.1094C72.276 62.8906 70.9948 63.2812 69.4844 63.2812C68.4323 63.2812 67.474 63.0781 66.6094 62.6719C65.7552 62.2552 65.0469 61.7448 64.4844 61.1406V64.5H66.5V69.2031ZM66.7344 58.7188C67.6719 58.7188 68.3646 58.3438 68.8125 57.5938C69.2604 56.8438 69.4844 55.8594 69.4844 54.6406C69.4844 53.3906 69.2396 52.3906 68.75 51.6406C68.2604 50.8906 67.6198 50.5156 66.8281 50.5156C66.2969 50.5156 65.8177 50.651 65.3906 50.9219C64.9635 51.1823 64.6615 51.526 64.4844 51.9531V57.375C64.9531 58.2708 65.7031 58.7188 66.7344 58.7188ZM91.7031 58.2969V63H79.0625V58.2969H81.8125V43.8906H79.0625V39.6406L89.2969 38.6094V58.2969H91.7031ZM99.875 63.2812C98.8125 63.2812 97.849 63.0729 96.9844 62.6562C96.1094 62.25 95.4115 61.6615 94.8906 60.8906C94.3698 60.1198 94.1094 59.224 94.1094 58.2031C94.1094 57.099 94.4167 56.1615 95.0312 55.3906C95.6458 54.6406 96.4479 54.0781 97.4375 53.7031C98.4375 53.3281 99.5156 53.1406 100.672 53.1406C102.036 53.1406 103.349 53.3438 104.609 53.75V53.0469C104.609 52.2135 104.255 51.5781 103.547 51.1406C102.849 50.7031 101.901 50.4844 100.703 50.4844C100.193 50.4844 99.6198 50.5469 98.9844 50.6719C98.349 50.7969 97.7292 50.9688 97.125 51.1875C96.5208 51.4062 95.9948 51.651 95.5469 51.9219L95.0938 51.7344V47.1875C96.3542 46.7396 97.6406 46.4219 98.9531 46.2344C100.266 46.0365 101.49 45.9375 102.625 45.9375C108.958 45.9375 112.125 47.7188 112.125 51.2812V58.2969H113.594V63H105.594L104.891 60.4375C104.443 61.3125 103.745 62.0052 102.797 62.5156C101.849 63.026 100.875 63.2812 99.875 63.2812ZM102.812 59.2812C103.156 59.2812 103.505 59.224 103.859 59.1094C104.224 58.9948 104.474 58.875 104.609 58.75V56.125C104.453 56.1042 104.203 56.0417 103.859 55.9375C103.505 55.8438 103.198 55.7969 102.938 55.7969C102.385 55.7969 101.943 55.9688 101.609 56.3125C101.286 56.6562 101.125 57.1146 101.125 57.6875C101.125 58.1146 101.276 58.4896 101.578 58.8125C101.891 59.125 102.302 59.2812 102.812 59.2812ZM125.203 63.2812C123.297 63.2812 121.635 62.9167 120.219 62.1875C118.792 61.4688 117.682 60.4479 116.891 59.125C116.099 57.8021 115.703 56.2448 115.703 54.4531C115.703 52.8385 116.036 51.3854 116.703 50.0938C117.359 48.8021 118.297 47.7865 119.516 47.0469C120.745 46.3073 122.172 45.9375 123.797 45.9375C124.411 45.9375 125.062 46.0156 125.75 46.1719C126.438 46.3177 127.052 46.5365 127.594 46.8281C128.146 47.1198 128.51 47.4844 128.688 47.9219L129.328 46.2656H132.734V53.1719H128.219C128.135 52.3385 127.891 51.6875 127.484 51.2188C127.078 50.75 126.573 50.5156 125.969 50.5156C125.073 50.5156 124.391 50.8021 123.922 51.375C123.453 51.9375 123.219 52.974 123.219 54.4844C123.219 55.526 123.406 56.349 123.781 56.9531C124.167 57.5469 124.661 57.974 125.266 58.2344C125.88 58.4844 126.531 58.6094 127.219 58.6094C127.969 58.6094 128.781 58.4792 129.656 58.2188C130.531 57.9479 131.307 57.526 131.984 56.9531L132.219 57.1094V61.4688C132.219 61.5104 131.901 61.6875 131.266 62C130.63 62.3229 129.786 62.6198 128.734 62.8906C127.682 63.151 126.505 63.2812 125.203 63.2812ZM144.734 63.2812C142.797 63.2812 141.115 62.9219 139.688 62.2031C138.25 61.4948 137.146 60.4792 136.375 59.1562C135.615 57.8333 135.234 56.2865 135.234 54.5156C135.234 52.7656 135.609 51.2448 136.359 49.9531C137.099 48.6719 138.146 47.6823 139.5 46.9844C140.854 46.2865 142.443 45.9375 144.266 45.9375C145.943 45.9375 147.422 46.2656 148.703 46.9219C149.984 47.5885 150.974 48.5312 151.672 49.75C152.38 50.9688 152.734 52.3906 152.734 54.0156C152.734 54.5781 152.651 55.1094 152.484 55.6094H142.75C142.75 56.5885 143.12 57.375 143.859 57.9688C144.599 58.5521 145.49 58.8438 146.531 58.8438C147.323 58.8438 148.193 58.7083 149.141 58.4375C150.089 58.1562 151.042 57.724 152 57.1406L152.266 57.2344V61.4375C151.193 62.0521 150.089 62.5156 148.953 62.8281C147.828 63.1302 146.422 63.2812 144.734 63.2812ZM142.75 52.4062V52.8594H146.75V52.5312C146.75 51.7917 146.578 51.1562 146.234 50.625C145.901 50.0833 145.401 49.8125 144.734 49.8125C144.182 49.8125 143.714 50.0885 143.328 50.6406C142.943 51.1823 142.75 51.7708 142.75 52.4062Z" fill="#24576B"/>
</svg>
